<svg width="81" height="81" viewBox="0 0 81 81" fill="none" xmlns="http://www.w3.org/2000/svg">
<g clip-path="url(#clip0_487_2660)">
<g clip-path="url(#clip1_487_2660)">
<path d="M79.2619 0H0V79.2619H79.2619V0Z" fill="white"/>
<g clip-path="url(#clip2_487_2660)">
<path d="M27.882 59.1855C29.4995 60.4008 31.3501 61.3609 33.3959 61.9863C36.0673 62.8053 38.894 62.9833 41.6471 62.5061C39.0978 60.6233 36.9562 58.295 35.2993 55.6696C33.2593 57.5728 30.6642 58.8122 27.882 59.1855Z" fill="#FF9100"/>
<path d="M35.2956 55.6718C31.5144 49.6755 30.2679 42.1292 32.5033 34.8177C32.5759 34.5801 32.6527 34.3441 32.7317 34.1086C30.6542 32.9315 28.3014 32.3274 25.9139 32.358C23.9421 34.3491 22.4096 36.8292 21.5346 39.6909C19.2765 47.0772 22.0429 54.8007 27.8784 59.1878C30.6606 58.8144 33.255 57.5768 35.2956 55.6718Z" fill="#FFC400"/>
<path d="M35.2984 55.6706C36.9684 54.1135 38.2646 52.1105 38.9801 49.7701C40.8622 43.6138 38.1169 37.1485 32.7344 34.1074C32.6555 34.3428 32.5787 34.5791 32.5062 34.8165C30.2707 42.1282 31.5173 49.6744 35.2984 55.6706Z" fill="#FF9100"/>
<path d="M46.5091 19.0767C42.509 20.8326 38.9766 23.6145 36.3295 27.2003C34.7783 29.3023 33.5636 31.633 32.7291 34.1086C38.1116 37.1495 40.857 43.615 38.9747 49.7713C38.2593 52.1116 36.9615 54.1118 35.2931 55.6718C36.9652 58.3257 39.118 60.6442 41.6408 62.5082C48.0679 61.3971 53.6495 56.796 55.6872 50.131C57.0074 45.8126 56.3737 41.4787 54.8857 37.5653C53.3158 33.4273 46.509 19.0767 46.509 19.0767" fill="#DD2C00"/>
</g>
</g>
</g>
<defs>
<clipPath id="clip0_487_2660">
<rect width="80.02" height="80.02" rx="11" fill="white"/>
</clipPath>
<clipPath id="clip1_487_2660">
<rect width="80.02" height="80.02" fill="white"/>
</clipPath>
<clipPath id="clip2_487_2660">
<rect width="35.7117" height="44.9187" fill="white" transform="translate(28.3516 14.2109) rotate(15)"/>
</clipPath>
</defs>
</svg>
