<svg width="93" height="93" viewBox="0 0 93 93" fill="none" xmlns="http://www.w3.org/2000/svg">
<g clip-path="url(#clip0_487_2643)">
<g clip-path="url(#clip1_487_2643)">
<path d="M91.7143 0H0V91.7143H91.7143V0Z" fill="white"/>
<mask id="mask0_487_2643" style="mask-type:luminance" maskUnits="userSpaceOnUse" x="22" y="13" width="48" height="64">
<path d="M69.758 13.4023H22.3867V76.564H69.758V13.4023Z" fill="white"/>
</mask>
<g mask="url(#mask0_487_2643)">
<path d="M46.0723 13.4023L54.6852 21.8239L22.3867 53.4046V36.5617L46.0723 13.4023Z" fill="url(#paint0_linear_487_2643)"/>
<path d="M26.9789 57.8933L46.0723 76.5624L69.7579 53.4032V36.5601L54.6852 21.8223L22.3867 53.4032L22.3932 53.4096L54.6852 21.8223V46.0342L40.1509 60.2456V45.1905L26.9789 57.8933Z" fill="url(#paint1_linear_487_2643)"/>
</g>
</g>
</g>
<defs>
<linearGradient id="paint0_linear_487_2643" x1="38.5359" y1="13.4023" x2="38.5359" y2="53.4046" gradientUnits="userSpaceOnUse">
<stop stop-color="#7D6CFF"/>
<stop offset="1" stop-color="#3628A0"/>
</linearGradient>
<linearGradient id="paint1_linear_487_2643" x1="46.0723" y1="21.8223" x2="46.0723" y2="76.5624" gradientUnits="userSpaceOnUse">
<stop stop-color="#7D6CFF"/>
<stop offset="1" stop-color="#3628A0"/>
</linearGradient>
<clipPath id="clip0_487_2643">
<rect width="92.02" height="92.02" rx="11" fill="white"/>
</clipPath>
<clipPath id="clip1_487_2643">
<rect width="92.02" height="92.02" fill="white"/>
</clipPath>
</defs>
</svg>
